 <svg version="1.0" xmlns="http://www.w3.org/2000/svg" width="700.000000pt" height="224.000000pt" viewBox="0 0 700.000000 224.000000" preserveAspectRatio="xMidYMid meet">
<metadata>
Created by potrace 1.12, written by Peter Selinger 2001-2015
</metadata>
<g transform="translate(0.000000,224.000000) scale(0.100000,-0.100000)" fill="#000000" stroke="none">
<path d="M0 1721 c0 -86 4 -127 15 -147 8 -16 15 -37 15 -48 0 -32 59 -139
112 -204 46 -57 101 -106 232 -204 74 -57 137 -118 131 -129 -4 -5 -113 -9
-256 -9 l-249 0 0 -140 0 -140 425 0 425 0 0 109 c0 130 -26 224 -88 317 -48
71 -91 112 -243 232 -114 90 -189 162 -189 182 0 6 98 11 258 12 l257 3 3 143
3 142 -426 0 -425 0 0 -119z"></path>
<path d="M885 1818 c-3 -13 -4 -268 -3 -568 l3 -545 142 -3 142 -3 3 143 3
143 145 0 145 0 3 -143 3 -143 142 3 142 3 0 230 c0 217 -12 360 -34 402 -5
10 -17 38 -27 63 -58 146 -192 285 -345 361 -94 47 -240 79 -358 79 -96 0
-101 -1 -106 -22z m353 -312 c87 -44 212 -185 198 -222 -5 -12 -30 -14 -133
-12 l-128 3 -3 114 c-3 109 0 141 13 141 3 0 27 -11 53 -24z"></path>
<path d="M1797 1833 c-4 -3 -7 -260 -7 -570 l0 -564 143 3 142 3 3 398 c3 442
-1 423 69 370 49 -38 109 -132 133 -211 18 -57 20 -93 20 -313 l0 -249 139 0
138 0 5 268 5 267 35 76 c51 109 158 221 179 188 5 -8 9 -191 9 -406 l0 -393
140 0 140 0 -2 568 -3 567 -105 0 c-95 0 -209 -17 -235 -35 -5 -4 -21 -11 -35
-15 -45 -14 -154 -91 -212 -150 l-57 -59 -74 75 c-125 126 -284 189 -474 189
-49 0 -93 -3 -96 -7z"></path>
<path d="M3137 1833 c-4 -3 -7 -260 -7 -570 l0 -563 140 0 140 0 2 397 c3 453
0 438 83 362 49 -45 102 -128 124 -194 9 -27 15 -124 18 -302 l5 -263 138 0
138 0 4 273 c2 171 7 279 14 292 6 11 26 50 45 88 18 37 36 67 40 67 16 0 19
-51 19 -376 l0 -344 195 0 194 0 3 143 3 142 92 3 92 3 3 -143 3 -143 143 -3
142 -3 0 226 c0 226 -10 336 -37 410 -38 105 -97 203 -169 281 -43 46 -152
123 -212 150 -29 12 -55 31 -59 41 -4 10 -11 21 -17 25 -6 4 -93 8 -193 8
l-183 0 0 -23 c0 -27 -18 -45 -75 -72 -21 -11 -73 -53 -114 -93 l-75 -73 -65
64 c-114 110 -181 148 -314 178 -79 18 -247 26 -260 12z m1372 -419 c58 -63
89 -120 74 -135 -6 -6 -41 -9 -79 -7 l-69 3 -3 84 c-5 132 2 137 77 55z"></path>
<path d="M4948 1830 c-1 -5 -2 -262 0 -570 l2 -560 120 0 c119 0 185 10 248
36 18 8 39 14 46 14 32 0 176 100 246 170 72 73 160 210 160 250 0 9 4 20 9
26 24 24 41 199 41 414 0 258 19 232 -165 228 l-120 -3 -5 -265 c-3 -156 -10
-278 -17 -296 -19 -54 -78 -138 -127 -181 -56 -49 -123 -86 -142 -79 -12 4
-14 77 -14 410 0 359 -2 405 -16 410 -27 10 -262 7 -266 -4z"></path>
<path d="M5857 1833 c-10 -9 -7 -148 3 -208 18 -101 27 -132 63 -200 49 -92
121 -167 295 -304 79 -63 141 -119 139 -125 -3 -8 -79 -12 -250 -14 -289 -3
-259 16 -255 -162 l3 -115 423 -3 422 -2 0 112 c0 121 -11 170 -55 261 -45 92
-128 174 -327 325 -62 47 -138 125 -138 142 0 6 93 11 258 12 l257 3 3 143 3
142 -419 0 c-230 0 -422 -3 -425 -7z"></path>
</g>
</svg>